<svg width="19" height="18" viewBox="0 0 19 18" fill="none" xmlns="http://www.w3.org/2000/svg">
<path d="M9.49745 4.38213C6.80005 4.38213 4.62312 6.44452 4.62312 9C4.62312 11.5555 6.80005 13.6179 9.49745 13.6179C12.1948 13.6179 14.3718 11.5555 14.3718 9C14.3718 6.44452 12.1948 4.38213 9.49745 4.38213ZM9.49745 12.0013C7.75305 12.0013 6.32949 10.6526 6.32949 9C6.32949 7.34738 7.75305 5.99872 9.49745 5.99872C11.2418 5.99872 12.6654 7.34738 12.6654 9C12.6654 10.6526 11.2418 12.0013 9.49745 12.0013ZM14.5714 3.11678C13.9416 3.11678 13.433 3.5986 13.433 4.19525C13.433 4.79191 13.9416 5.27373 14.5714 5.27373C15.2012 5.27373 15.7098 4.79416 15.7098 4.19525C15.71 4.05358 15.6806 3.91325 15.6235 3.78233C15.5664 3.6514 15.4825 3.53244 15.3768 3.43226C15.271 3.33208 15.1455 3.25264 15.0073 3.19851C14.8691 3.14437 14.721 3.1166 14.5714 3.11678ZM18.9989 9C18.9989 7.75716 19.0108 6.52558 18.9371 5.28499C18.8635 3.84402 18.5165 2.56515 17.4043 1.51144C16.2897 0.455477 14.9421 0.129006 13.4211 0.0592092C12.1093 -0.0105879 10.8093 0.000669702 9.49982 0.000669702C8.18796 0.000669702 6.88798 -0.0105879 5.5785 0.0592092C4.0575 0.129006 2.70761 0.457728 1.59538 1.51144C0.480772 2.5674 0.136171 3.84402 0.0624975 5.28499C-0.0111759 6.52783 0.000706894 7.75941 0.000706894 9C0.000706894 10.2406 -0.0111759 11.4744 0.0624975 12.715C0.136171 14.156 0.483149 15.4348 1.59538 16.4886C2.70999 17.5445 4.0575 17.871 5.5785 17.9408C6.89036 18.0106 8.19034 17.9993 9.49982 17.9993C10.8117 17.9993 12.1117 18.0106 13.4211 17.9408C14.9421 17.871 16.292 17.5423 17.4043 16.4886C18.5189 15.4326 18.8635 14.156 18.9371 12.715C19.0132 11.4744 18.9989 10.2428 18.9989 9ZM16.9076 14.3091C16.7341 14.7189 16.5249 15.0251 16.1898 15.3403C15.8547 15.6577 15.5339 15.8559 15.1014 16.0202C13.8513 16.4908 10.883 16.385 9.49745 16.385C8.11191 16.385 5.14121 16.4908 3.89114 16.0225C3.4586 15.8581 3.13539 15.66 2.80267 15.3425C2.46758 15.0251 2.25844 14.7211 2.08495 14.3113C1.59063 13.1248 1.70232 10.3126 1.70232 9C1.70232 7.68736 1.59063 4.87296 2.08495 3.68866C2.25844 3.27888 2.46758 2.97268 2.80267 2.65746C3.13777 2.34225 3.4586 2.14187 3.89114 1.97751C5.14121 1.50919 8.11191 1.61501 9.49745 1.61501C10.883 1.61501 13.8537 1.50919 15.1038 1.97751C15.5363 2.14187 15.8595 2.34 16.1922 2.65746C16.5273 2.97493 16.7365 3.27888 16.9099 3.68866C17.4043 4.87296 17.2926 7.68736 17.2926 9C17.2926 10.3126 17.4043 13.1248 16.9076 14.3091Z" fill="#56CCF2"/>
</svg>
