<svg width="18" height="18" viewBox="0 0 18 18" fill="none" xmlns="http://www.w3.org/2000/svg">
<path d="M3.28669 0C1.46601 0 0 1.46601 0 3.28669V14.7133C0 16.534 1.46601 18 3.28669 18H9.47983V10.9631H7.61908V8.42962H9.47983V6.26512C9.47983 4.56457 10.5792 3.00319 13.1119 3.00319C14.1373 3.00319 14.8956 3.10163 14.8956 3.10163L14.8359 5.46751C14.8359 5.46751 14.0626 5.4602 13.2187 5.4602C12.3054 5.4602 12.159 5.881 12.159 6.57958V8.42964H14.9085L14.7887 10.9631H12.159V18H14.7133C16.534 18 18 16.534 18 14.7133V3.2867C18 1.46602 16.534 1.8e-05 14.7133 1.8e-05H3.28667L3.28669 0Z" fill="#56CCF2"/>
</svg>
