<svg width="24" height="24" viewBox="0 0 24 24" fill="none" xmlns="http://www.w3.org/2000/svg">
<path d="M19.8843 11.8513C18.0991 11.8513 16.6611 13.2397 16.6611 14.9257V17.3555C16.6611 17.7026 16.9587 18.0001 17.3058 18.0001C17.6529 18.0001 17.9504 17.7026 17.9504 17.3555V14.9257C17.9504 13.9835 18.7934 13.1902 19.8347 13.1902H20.7272C21.7686 13.1902 22.6115 13.9835 22.6115 14.9257V17.3555C22.6115 17.7026 22.9091 18.0001 23.2562 18.0001C23.6033 18.0001 23.9008 17.7026 23.9008 17.3555V14.9257C23.9008 13.2397 22.4628 11.8513 20.6777 11.8513C20.7768 11.8513 19.8843 11.8513 19.8843 11.8513Z" fill="#78BE21"/>
<path d="M17.752 8.57851C17.752 10.0165 18.9421 11.157 20.3306 11.157C21.719 11.157 22.9091 9.96694 22.9091 8.57851C22.9091 7.19008 21.7686 6 20.3306 6C18.8925 6 17.752 7.19008 17.752 8.57851ZM21.6198 8.57851C21.6198 9.27273 21.0744 9.86777 20.3306 9.86777C19.5868 9.86777 19.0413 9.32231 19.0413 8.57851C19.0413 7.83471 19.5868 7.28926 20.3306 7.28926C21.0248 7.33884 21.6198 7.8843 21.6198 8.57851Z" fill="#78BE21"/>
<path d="M4.562 13.1902C5.60332 13.1902 6.44629 13.9835 6.44629 14.9257V17.3555C6.44629 17.7026 6.74381 18.0001 7.09092 18.0001C7.43803 18.0001 7.73555 17.7026 7.73555 17.3555V14.9257C7.73555 13.2397 6.29753 11.8513 4.51241 11.8513H3.71902C1.9339 11.8513 0.49588 13.2397 0.49588 14.9257V17.3555C0.49588 17.7026 0.793401 18.0001 1.14051 18.0001C1.48762 18.0001 1.78514 17.7026 1.78514 17.3555V14.9257C1.78514 13.9835 2.62811 13.1902 3.66943 13.1902C3.71902 13.1902 4.562 13.1902 4.562 13.1902Z" fill="#78BE21"/>
<path d="M4.16527 11.2066C5.60329 11.2066 6.74378 10.0165 6.74378 8.62807C6.74378 7.23964 5.5537 6.04956 4.16527 6.04956C2.77684 6.04956 1.53717 7.19006 1.53717 8.62807C1.53717 10.0661 2.72725 11.2066 4.16527 11.2066ZM4.16527 7.33882C4.85948 7.33882 5.45453 7.88427 5.45453 8.62807C5.45453 9.37187 4.85948 9.91733 4.16527 9.91733C3.47105 9.91733 2.87601 9.32229 2.87601 8.62807C2.87601 7.93386 3.47105 7.33882 4.16527 7.33882Z" fill="#78BE21"/>
<path d="M15.8678 17.3555V14.9257C15.8678 13.2397 14.4298 11.8513 12.6447 11.8513H11.7521C9.96698 11.8513 8.52896 13.2397 8.52896 14.9257V17.3555C8.52896 17.7026 8.82648 18.0001 9.17359 18.0001C9.5207 18.0001 9.81822 17.7026 9.81822 17.3555V14.9257C9.81822 13.9835 10.6612 13.1902 11.7025 13.1902H12.5951C13.6364 13.1902 14.4794 13.9835 14.4794 14.9257V17.3555C14.4794 17.7026 14.7769 18.0001 15.124 18.0001C15.4711 18.0001 15.8678 17.7026 15.8678 17.3555Z" fill="#78BE21"/>
<path d="M9.61987 8.62807C9.61987 10.0661 10.81 11.2066 12.1984 11.2066C13.5868 11.2066 14.7769 10.0165 14.7769 8.62807C14.7769 7.23964 13.5868 6.04956 12.1984 6.04956C10.81 6.04956 9.61987 7.19006 9.61987 8.62807ZM13.4876 8.62807C13.4876 9.32229 12.9422 9.91733 12.1984 9.91733C11.4546 9.91733 10.9091 9.37187 10.9091 8.62807C10.9091 7.88427 11.4546 7.33882 12.1984 7.33882C12.9422 7.33882 13.4876 7.93386 13.4876 8.62807Z" fill="#78BE21"/>
</svg>
