<svg width="21" height="20" viewBox="0 0 21 20" fill="none" xmlns="http://www.w3.org/2000/svg">
<path d="M18.44 10.9999C18.22 10.9999 17.99 10.9299 17.77 10.8799C17.3245 10.7817 16.8867 10.6514 16.46 10.4899C15.9961 10.3211 15.4861 10.3299 15.0283 10.5145C14.5705 10.6991 14.1971 11.0465 13.98 11.4899L13.76 11.9399C12.786 11.398 11.891 10.7251 11.1 9.93987C10.3148 9.14888 9.64182 8.25387 9.09999 7.27987L9.51999 6.99987C9.96336 6.78278 10.3108 6.4094 10.4954 5.95156C10.68 5.49372 10.6888 4.98378 10.52 4.51987C10.3612 4.09229 10.2309 3.65467 10.13 3.20987C10.08 2.98987 10.04 2.75987 10.01 2.52987C9.88856 1.82549 9.51962 1.18761 8.96962 0.731107C8.41961 0.274605 7.72469 0.0294769 7.00999 0.0398681H4.00999C3.57903 0.0358215 3.15224 0.124682 2.7587 0.300399C2.36516 0.476116 2.0141 0.734564 1.72942 1.05815C1.44474 1.38174 1.23313 1.76286 1.10898 2.17558C0.984835 2.5883 0.951073 3.02293 1.00999 3.44987C1.54273 7.63925 3.45602 11.5317 6.44765 14.5125C9.43927 17.4933 13.3387 19.3924 17.53 19.9099H17.91C18.6474 19.9109 19.3594 19.6404 19.91 19.1499C20.2264 18.8669 20.4791 18.52 20.6515 18.1322C20.8238 17.7443 20.912 17.3243 20.91 16.8999V13.8999C20.8977 13.2053 20.6448 12.5364 20.1943 12.0075C19.7439 11.4786 19.1238 11.1225 18.44 10.9999ZM18.94 16.9999C18.9398 17.1419 18.9094 17.2822 18.8508 17.4115C18.7922 17.5408 18.7067 17.6562 18.6 17.7499C18.4886 17.8469 18.358 17.9193 18.2167 17.9624C18.0754 18.0054 17.9266 18.0182 17.78 17.9999C14.0349 17.5197 10.5562 15.8064 7.89271 13.1302C5.22919 10.454 3.5324 6.96721 3.06999 3.21987C3.05408 3.07339 3.06803 2.9252 3.111 2.78426C3.15397 2.64332 3.22506 2.51256 3.31999 2.39987C3.4137 2.2932 3.52906 2.20771 3.65837 2.14909C3.78769 2.09046 3.92801 2.06005 4.06999 2.05987H7.06999C7.30254 2.05469 7.52962 2.13075 7.71214 2.27494C7.89466 2.41913 8.0212 2.62244 8.06999 2.84987C8.10999 3.1232 8.15999 3.3932 8.21999 3.65987C8.33551 4.18701 8.48925 4.70505 8.67999 5.20987L7.27999 5.85987C7.16029 5.91479 7.05262 5.99281 6.96315 6.08946C6.87369 6.18611 6.80419 6.29948 6.75867 6.42306C6.71314 6.54664 6.69247 6.678 6.69784 6.80959C6.70322 6.94118 6.73453 7.07041 6.78999 7.18987C8.22919 10.2726 10.7072 12.7507 13.79 14.1899C14.0335 14.2899 14.3065 14.2899 14.55 14.1899C14.6747 14.1453 14.7893 14.0763 14.8872 13.9871C14.985 13.8978 15.0642 13.79 15.12 13.6699L15.74 12.2699C16.257 12.4547 16.7846 12.6084 17.32 12.7299C17.5867 12.7899 17.8567 12.8399 18.13 12.8799C18.3574 12.9287 18.5607 13.0552 18.7049 13.2377C18.8491 13.4202 18.9252 13.6473 18.92 13.8799L18.94 16.9999Z" fill="#56CCF2"/>
</svg>
