<svg width="12" height="18" viewBox="0 0 12 18" fill="none" xmlns="http://www.w3.org/2000/svg">
<path d="M10.7167 7.81668L3.65003 0.750016C3.49509 0.593802 3.31075 0.469811 3.10766 0.385197C2.90456 0.300582 2.68671 0.257019 2.46669 0.257019C2.24667 0.257019 2.02883 0.300582 1.82573 0.385197C1.62263 0.469811 1.4383 0.593802 1.28336 0.750016C0.972942 1.06229 0.798706 1.48471 0.798706 1.92502C0.798706 2.36533 0.972942 2.78774 1.28336 3.10002L7.18336 9.00002L1.28336 14.9C0.972942 15.2123 0.798706 15.6347 0.798706 16.075C0.798706 16.5153 0.972942 16.9377 1.28336 17.25C1.43909 17.4045 1.62379 17.5267 1.82685 17.6096C2.02991 17.6926 2.24735 17.7346 2.46669 17.7333C2.68604 17.7346 2.90348 17.6926 3.10654 17.6096C3.3096 17.5267 3.49429 17.4045 3.65003 17.25L10.7167 10.1833C10.8729 10.0284 10.9969 9.84408 11.0815 9.64098C11.1661 9.43788 11.2097 9.22003 11.2097 9.00002C11.2097 8.77999 11.1661 8.56215 11.0815 8.35905C10.9969 8.15595 10.8729 7.97162 10.7167 7.81668Z" fill="#6CADD5"/>
</svg>
