<svg width="22" height="16" viewBox="0 0 22 16" fill="none" xmlns="http://www.w3.org/2000/svg">
<path d="M21.5525 2.51556C21.4273 2.03301 21.1826 1.59293 20.8428 1.23914C20.503 0.885341 20.0799 0.630165 19.6156 0.499009C17.8942 0.00800158 11.0076 8.67428e-06 11.0076 8.67428e-06C11.0076 8.67428e-06 4.12209 -0.0079847 2.3996 0.461327C1.93565 0.598519 1.51343 0.857304 1.17349 1.21284C0.833553 1.56837 0.5873 2.00871 0.458378 2.49158C0.0043987 4.27976 1.61052e-06 7.98858 1.61052e-06 7.98858C1.61052e-06 7.98858 -0.00439526 11.7157 0.446286 13.4856C0.699107 14.4642 1.44108 15.2372 2.38422 15.501C4.12319 15.992 10.9911 16 10.9911 16C10.9911 16 17.8778 16.008 19.5991 15.5398C20.0636 15.4089 20.487 15.1543 20.8277 14.8012C21.1683 14.4482 21.4144 14.0088 21.5415 13.5267C21.9965 11.7396 21.9998 8.03197 21.9998 8.03197C21.9998 8.03197 22.0218 4.30374 21.5525 2.51556ZM8.80477 11.4245L8.81027 4.57323L14.5339 8.00457L8.80477 11.4245Z" fill="#56CCF2"/>
</svg>
