<svg width="40" height="40" viewBox="0 0 40 40" fill="none" xmlns="http://www.w3.org/2000/svg">
<path d="M28.0831 0H11.9149C8.75563 0.00371264 5.72689 1.26049 3.49317 3.49459C1.25945 5.72868 0.00318145 8.75763 0 11.9169L0 28.0851C0.00371264 31.2444 1.26049 34.2731 3.49459 36.5068C5.72868 38.7405 8.75763 39.9968 11.9169 40H28.0851C31.2444 39.9963 34.2731 38.7395 36.5068 36.5054C38.7405 34.2713 39.9968 31.2424 40 28.0831V11.9149C39.9963 8.75563 38.7395 5.72689 36.5054 3.49317C34.2713 1.25945 31.2424 0.00318145 28.0831 0V0ZM35.977 28.0831C35.977 29.1198 35.7728 30.1463 35.3761 31.104C34.9794 32.0617 34.3979 32.9319 33.6649 33.6649C32.9319 34.3979 32.0617 34.9794 31.104 35.3761C30.1463 35.7728 29.1198 35.977 28.0831 35.977H11.9149C9.82163 35.9764 7.81432 35.1445 6.33438 33.6642C4.85443 32.1839 4.02304 30.1764 4.02304 28.0831V11.9149C4.02357 9.82163 4.85547 7.81432 6.33579 6.33438C7.81611 4.85443 9.82363 4.02304 11.9169 4.02304H28.0851C30.1784 4.02357 32.1857 4.85547 33.6656 6.33579C35.1456 7.81611 35.977 9.82363 35.977 11.9169V28.0851V28.0831Z" fill="#B0008E"/>
</svg>
