<svg width="24" height="24" viewBox="0 0 24 24" fill="none" xmlns="http://www.w3.org/2000/svg">
<g clip-path="url(#clip0)">
<path d="M20.6449 4.83867C20.2776 4.44683 20.0816 4.00602 20.0816 3.46724C20.0816 2.92846 20.2776 2.46316 20.6449 2.09581C21.0367 1.70398 21.502 1.50806 22.0408 1.50806C22.5551 1.50806 23.0204 1.70397 23.4122 2.07132C23.8041 2.43867 24 2.90397 24 3.44275C24 3.98153 23.8041 4.44683 23.4122 4.81418C23.0204 5.18153 22.5796 5.37744 22.0408 5.37744C21.502 5.40193 21.0367 5.20602 20.6449 4.83867Z" fill="white"/>
<path d="M19.7388 14.0712C19.249 13.5079 16.8245 10.9365 13.249 9.71202L13.8367 9.02631C14.9388 9.39366 16.5306 10.2018 17.5102 10.912L19.9592 8.07121C19.9592 8.07121 21.0857 6.6508 20.3265 5.4508C19.8367 4.64264 18.9796 4.54468 18.6367 4.54468H18.6122H9.86939C9.25714 4.54468 8.76735 5.03447 8.76735 5.64672C8.76735 6.25896 9.25714 6.74876 9.86939 6.74876H15.7959L13.8367 9.02631C12.7347 8.63447 11.5102 8.38958 10.2122 8.41407C9.47755 8.43856 8.81633 8.561 8.25306 8.75692C7.49388 7.8508 7.07755 6.94468 7.07755 6.92019L6.31837 7.23856C6.34286 7.31202 6.73469 8.14468 7.4449 9.07529C6.85714 9.34468 6.31837 9.66304 5.82857 9.95692C5.33878 10.2508 4.84898 10.5447 4.40816 10.7161C1.76327 11.5977 0.759184 9.95692 0.710204 9.90794L0 10.3243C0.0244898 10.3488 1.37143 12.6018 4.67755 11.5243C5.19184 11.3039 5.70612 11.01 6.22041 10.6916C6.78367 10.3488 7.34694 10.0059 7.98367 9.761C8.44898 10.2508 9.03673 10.6916 9.69796 11.01C10.3592 11.3039 11.0204 11.4998 11.5837 11.6222L9.3551 14.2181H4.89796C4.53061 14.2181 4.21224 14.3406 3.96735 14.561C3.72245 14.7814 3.6 15.0998 3.6 15.4426C3.6 15.7855 3.72245 16.0794 3.96735 16.3243C4.21224 16.5692 4.53061 16.6916 4.87347 16.6916H10.1388C10.3592 16.6916 10.5551 16.6671 10.7265 16.6426C11.1673 16.5692 11.4857 16.4222 11.6571 16.2263L14.1551 13.5324C14.1551 13.5324 16.5796 14.659 17.6327 15.7855C19.5673 17.8671 19.2735 21.9324 19.249 22.0059C19.2245 22.5447 19.7633 23.3528 20.6204 23.2304C21.3551 23.1324 21.649 22.4222 21.649 21.81C21.649 21.761 21.9184 16.6916 19.7388 14.0712ZM12.2449 10.8875C11.6327 10.7896 10.8735 10.5937 10.0653 10.2263C9.62449 10.0304 9.23265 9.761 8.8898 9.44264C9.30612 9.34468 9.74694 9.27121 10.2367 9.24672C11.2898 9.22223 12.3184 9.41815 13.249 9.71202L12.2449 10.8875Z" fill="white"/>
</g>
<defs>
<clipPath id="clip0">
<rect width="24" height="24" fill="white"/>
</clipPath>
</defs>
</svg>
