<svg width="190" height="124" viewBox="0 0 190 124" fill="none" xmlns="http://www.w3.org/2000/svg">
<path fill-rule="evenodd" clip-rule="evenodd" d="M126.227 44.2516C126.227 62.9595 111.034 78.1897 92.2376 78.1897C73.5013 78.1897 58.248 63.0195 58.248 44.2516C58.248 25.5436 73.4413 10.3135 92.2376 10.3135C110.974 10.3135 126.227 25.4837 126.227 44.2516Z" fill="#21317D"/>
<path d="M61.7911 44.2517C61.7911 61.0408 75.423 74.652 92.2376 74.652C109.052 74.652 122.684 61.0408 122.684 44.2517C122.684 27.4625 109.052 13.8513 92.2376 13.8513C75.423 13.7913 61.7911 27.4625 61.7911 44.2517Z" fill="url(#paint0_radial)"/>
<path d="M5.06261 109.804L5.06252 109.804L5.07232 109.811C6.20933 110.613 7.58254 111.008 8.97143 110.936C9.83464 110.925 10.6912 110.784 11.5125 110.519C11.6375 110.503 11.7588 110.464 11.8706 110.406C12.0046 110.335 12.1218 110.236 12.2145 110.117C12.3072 109.997 12.3732 109.859 12.4079 109.711L11.9213 109.597L12.4079 109.711C12.441 109.571 12.4452 109.426 12.4202 109.284L12.1009 106.623C12.0809 106.33 11.9689 106.044 11.6978 105.855C11.4543 105.685 11.1603 105.652 10.9139 105.652H10.8467L10.7818 105.67C10.5232 105.741 10.2553 105.771 9.98742 105.76L9.97713 105.76H9.96682C9.67837 105.76 9.55527 105.684 9.49483 105.617C9.42586 105.541 9.3475 105.378 9.3475 105.033V86.6285C9.3475 86.3535 9.28285 86.0514 9.06224 85.8189C8.83695 85.5814 8.53309 85.5042 8.24478 85.5042H4.65446C4.50608 85.4909 4.3564 85.509 4.21523 85.5575C4.06279 85.6099 3.92433 85.6964 3.81037 85.8104C3.6964 85.9243 3.60993 86.0628 3.55754 86.2152C3.50903 86.3564 3.49092 86.5061 3.50425 86.6545V106.574C3.4831 107.197 3.61309 107.815 3.88318 108.377C4.15464 108.941 4.55943 109.431 5.06261 109.804Z" fill="white" stroke="#0E3278"/>
<path d="M29.6152 108.518L29.7968 108.368V108.309C31.3589 106.606 32.2282 104.378 32.2282 102.062C32.2282 99.6789 31.3072 97.3877 29.6576 95.6675L29.637 95.6459L29.6139 95.627C27.7038 94.06 25.3096 93.2036 22.8391 93.2036C20.3685 93.2036 17.9744 94.06 16.0643 95.627L16.0443 95.6433L16.0262 95.6616C14.3363 97.3676 13.3883 99.6717 13.3883 102.073C13.3883 104.474 14.3363 106.778 16.0262 108.484L16.0437 108.502L16.0629 108.518C17.9697 110.093 20.3657 110.955 22.8391 110.955C25.3124 110.955 27.7085 110.093 29.6152 108.518ZM22.8606 105.978C21.8568 105.978 20.8885 105.608 20.1402 104.94C19.4685 104.157 19.0989 103.159 19.0989 102.127C19.0989 101.094 19.4685 100.096 20.1402 99.3132C20.8885 98.6452 21.8568 98.2756 22.8606 98.2756C23.8644 98.2756 24.8327 98.6452 25.581 99.3132C26.2527 100.096 26.6223 101.094 26.6223 102.127C26.6223 103.159 26.2527 104.157 25.581 104.94C24.8327 105.608 23.8644 105.978 22.8606 105.978Z" fill="white" stroke="#0E3278"/>
<path d="M51.6403 93.7485L51.6373 93.7485L48.083 93.7699C47.9349 93.7611 47.7864 93.7835 47.6473 93.8357C47.5001 93.8911 47.367 93.9785 47.2577 94.0917C47.1801 94.172 47.1159 94.264 47.0672 94.364C45.8113 93.6056 44.3599 93.2171 42.8817 93.2532C41.6977 93.213 40.5174 93.4092 39.41 93.8303C38.2977 94.2533 37.2813 94.8947 36.4208 95.7166L36.4136 95.7235L36.4066 95.7307C34.7646 97.4294 33.8467 99.6996 33.8467 102.062C33.8467 104.425 34.7646 106.695 36.4066 108.394L36.4124 108.4L36.4183 108.406C37.2751 109.235 38.2907 109.883 39.4041 110.31L39.5832 109.844L39.4041 110.31C40.5125 110.736 41.695 110.934 42.8814 110.893C44.2766 110.93 45.6495 110.587 46.8567 109.91V110.35V110.361L46.8572 110.372C46.8759 110.798 46.8082 111.223 46.6581 111.622C46.51 112.016 46.2846 112.377 45.9954 112.682C45.6733 112.973 45.2972 113.198 44.8883 113.344C44.4741 113.492 44.0346 113.555 43.5955 113.531L43.5769 113.53L43.5581 113.531C42.8053 113.546 42.0605 113.373 41.391 113.029C40.8904 112.757 40.5073 112.31 40.3149 111.774L40.3113 111.764L40.3072 111.754C40.2127 111.522 40.0533 111.323 39.8482 111.18C39.643 111.037 39.4009 110.956 39.1509 110.948L39.1424 110.947H39.1339H35.5176C35.2238 110.947 34.8324 110.984 34.6015 111.308C34.4951 111.458 34.4622 111.619 34.4488 111.735C34.4364 111.843 34.4364 111.961 34.4364 112.057L34.4364 112.072V112.114L34.4437 112.156C34.6051 113.096 34.9581 113.993 35.4807 114.791C36.0034 115.589 36.6845 116.271 37.4818 116.795L37.4843 116.796C39.2978 117.972 41.4279 118.563 43.5875 118.492C45.9921 118.593 48.3463 117.781 50.1781 116.219L50.1781 116.219L50.1831 116.215C51.0231 115.479 51.6886 114.565 52.1314 113.54C52.5729 112.518 52.7818 111.411 52.743 110.298V94.8727C52.743 94.5977 52.6783 94.2956 52.4577 94.0631C52.2324 93.8256 51.9286 93.7485 51.6403 93.7485ZM43.3038 106.061L43.2889 106.061L43.2739 106.061C42.7851 106.075 42.2991 105.984 41.8489 105.793C41.4005 105.602 40.9983 105.318 40.6696 104.958C39.983 104.168 39.6206 103.147 39.6552 102.1L39.6558 102.082L39.6551 102.064C39.6129 101.008 39.9838 99.9768 40.6892 99.1898C41.0173 98.8282 41.4201 98.5421 41.8696 98.3513C42.3196 98.1603 42.8056 98.0693 43.2942 98.0847L43.3103 98.0852L43.3264 98.0847C43.803 98.0689 44.2772 98.1577 44.7158 98.3448C45.1489 98.5295 45.5369 98.8056 45.8532 99.1541C46.4939 99.988 46.8413 101.01 46.8413 102.062C46.8413 103.115 46.4936 104.137 45.8525 104.971C45.5345 105.326 45.1435 105.606 44.7063 105.795C44.264 105.985 43.7852 106.076 43.3038 106.061Z" fill="white" stroke="#0E3278"/>
<path d="M71.1367 108.519L71.3196 108.369V108.309C72.8817 106.606 73.751 104.378 73.751 102.062C73.751 99.6789 72.83 97.3878 71.1805 95.6675L71.1595 95.6456L71.136 95.6265C69.2243 94.0637 66.8311 93.21 64.3619 93.21C61.8927 93.21 59.4995 94.0637 57.5878 95.6265L57.5642 95.6457L57.5431 95.6677C55.8923 97.3916 54.9708 99.6862 54.9708 102.073C54.9708 104.46 55.8923 106.754 57.5431 108.478L57.5639 108.5L57.5871 108.519C59.4972 110.086 61.8913 110.942 64.3619 110.942C66.8325 110.942 69.2266 110.086 71.1367 108.519ZM64.3964 105.975L64.3822 105.975L64.368 105.975C63.8649 105.991 63.3636 105.906 62.8933 105.727C62.4313 105.55 62.0082 105.285 61.6476 104.947C60.9845 104.157 60.6208 103.159 60.6208 102.127C60.6208 101.095 60.9845 100.097 61.6476 99.3067C62.0082 98.9684 62.4313 98.7036 62.8933 98.5271C63.3636 98.3475 63.8649 98.2629 64.368 98.2784L64.3822 98.2789L64.3964 98.2785C64.8964 98.2655 65.394 98.3513 65.8609 98.5309C66.3195 98.7072 66.7395 98.9707 67.0978 99.3067C67.7608 100.097 68.1245 101.095 68.1245 102.127C68.1245 103.159 67.7608 104.157 67.0978 104.947C66.7395 105.283 66.3195 105.546 65.8609 105.723C65.394 105.902 64.8964 105.988 64.3964 105.975Z" fill="white" stroke="#0E3278"/>
<path d="M81.352 90.9655L81.359 90.9594L81.3658 90.9529C81.6733 90.6627 81.9183 90.3128 82.0858 89.9245C82.2532 89.5363 82.3396 89.1179 82.3396 88.6951C82.3396 88.2722 82.2532 87.8539 82.0858 87.4656C81.9183 87.0774 81.6734 86.7274 81.3658 86.4372L81.3558 86.4277L81.3453 86.4188C80.6802 85.857 79.8376 85.5488 78.967 85.5488C78.0963 85.5488 77.2538 85.857 76.5886 86.4188L76.5781 86.4277L76.5681 86.4372C76.2606 86.7274 76.0156 87.0774 75.8482 87.4656C75.6807 87.8539 75.5943 88.2722 75.5943 88.6951C75.5943 89.1179 75.6807 89.5363 75.8482 89.9245C76.0156 90.3128 76.2606 90.6627 76.5681 90.9529L76.5749 90.9594L76.582 90.9655C77.2421 91.5434 78.0896 91.8619 78.967 91.8619C79.8443 91.8619 80.6918 91.5434 81.352 90.9655ZM77.5764 109.8L77.5851 109.807L77.594 109.813C78.733 110.607 80.1025 111.002 81.4892 110.936C82.3601 110.927 83.2246 110.786 84.0534 110.519C84.1785 110.503 84.2998 110.465 84.4117 110.406C84.5457 110.335 84.6629 110.237 84.7556 110.117C84.8483 109.997 84.9143 109.859 84.949 109.712C84.9821 109.571 84.9863 109.426 84.9613 109.284L84.642 106.623C84.622 106.331 84.51 106.044 84.2389 105.855C83.9954 105.685 83.7014 105.652 83.455 105.652H83.3904L83.3278 105.669C83.0593 105.739 82.7819 105.77 82.5044 105.76L82.4954 105.76H82.4864C82.2128 105.76 82.0949 105.686 82.0357 105.62C81.9669 105.543 81.8886 105.378 81.8886 105.033V94.8729C81.8886 94.5979 81.8239 94.2958 81.6033 94.0633C81.378 93.8258 81.0742 93.7487 80.7859 93.7487H77.1956C77.0472 93.7353 76.8975 93.7534 76.7563 93.802C76.6039 93.8543 76.4654 93.9408 76.3515 94.0548C76.2375 94.1687 76.151 94.3072 76.0986 94.4596L76.0986 94.4596C76.0501 94.6008 76.032 94.7505 76.0453 94.8989V106.574C76.0254 107.194 76.1533 107.809 76.4183 108.369L76.8703 108.155L76.4183 108.369C76.6846 108.931 77.0817 109.422 77.5764 109.8Z" fill="white" stroke="#0E3278"/>
<path d="M104.292 95.7157L104.282 95.7049L104.271 95.6947C103.404 94.8684 102.381 94.2246 101.26 93.8016C100.145 93.3803 98.9565 93.1866 97.7651 93.2316C96.7163 93.2109 95.6741 93.4031 94.7017 93.7968C93.9207 94.113 93.1977 94.5539 92.5605 95.1009C92.1727 94.5555 91.6659 94.1016 91.0753 93.7753L90.8335 94.2129L91.0753 93.7753C90.3019 93.348 89.4196 93.1589 88.5394 93.2315C87.6997 93.2192 86.8647 93.3591 86.0748 93.6444C85.821 93.7223 85.6005 93.883 85.4485 94.101C85.2969 94.3186 85.2225 94.5805 85.2368 94.845V97.3696C85.2368 97.6697 85.3486 97.9639 85.6203 98.1615C85.8624 98.3375 86.1646 98.3863 86.4471 98.3863H87.1574H87.1939L87.2301 98.381C87.3256 98.3669 87.4231 98.3754 87.5147 98.4058C87.6064 98.4362 87.6897 98.4875 87.7579 98.5558C87.8262 98.6241 87.8776 98.7074 87.9079 98.799C87.9383 98.8906 87.9468 98.9881 87.9328 99.0837L87.9275 99.1198V99.1563V116.769C87.9082 116.914 87.9206 117.062 87.9642 117.203C88.013 117.361 88.0996 117.504 88.2164 117.621L88.57 117.267L88.2164 117.621C88.3332 117.738 88.4767 117.824 88.6345 117.873C88.7751 117.917 88.9232 117.929 89.0687 117.91H92.6465C92.9215 117.91 93.2236 117.845 93.4561 117.625C93.6936 117.399 93.7707 117.096 93.7707 116.807V109.945C94.9866 110.62 96.3641 110.964 97.765 110.936C98.9589 110.982 100.15 110.786 101.266 110.361C102.388 109.933 103.411 109.283 104.273 108.449L104.283 108.44L104.292 108.43C105.9 106.704 106.794 104.432 106.794 102.073C106.794 99.7136 105.9 97.4419 104.292 95.7157ZM101.037 101.974L101.036 101.996L101.037 102.018C101.081 103.095 100.704 104.147 99.9858 104.951C99.6497 105.301 99.2467 105.579 98.8008 105.77C98.3523 105.961 97.8697 106.06 97.3821 106.06C96.8944 106.06 96.4118 105.961 95.9634 105.77C95.5195 105.58 95.1182 105.303 94.7832 104.956C94.0925 104.136 93.7314 103.088 93.7704 102.016L93.7711 101.996L93.7703 101.977C93.7257 100.905 94.0872 99.8564 94.7823 99.0401C95.1175 98.6923 95.5191 98.4154 95.9634 98.2256C96.4118 98.034 96.8944 97.9353 97.3821 97.9353C97.8697 97.9353 98.3523 98.034 98.8008 98.2256C99.2472 98.4163 99.6505 98.695 99.9867 99.0451C100.71 99.8446 101.087 100.898 101.037 101.974Z" fill="white" stroke="#0E3278"/>
<path d="M110.664 109.53L110.664 109.53L110.676 109.537C112.435 110.531 114.436 111.016 116.455 110.936C118.46 111.001 120.437 110.456 122.125 109.372C122.827 108.928 123.401 108.31 123.793 107.578C124.181 106.851 124.376 106.036 124.359 105.212C124.387 104.615 124.298 104.019 124.097 103.457C123.894 102.888 123.58 102.366 123.173 101.919L123.173 101.919L123.168 101.914C122.425 101.121 121.46 100.568 120.4 100.327C119.397 100.083 118.382 99.8932 117.359 99.7586C116.521 99.646 115.699 99.4387 114.908 99.1406L114.883 99.131L114.856 99.1242C114.674 99.0775 114.512 98.9737 114.394 98.8281C114.279 98.6865 114.211 98.5126 114.199 98.3307C114.203 98.2206 114.239 98.1139 114.302 98.0234C114.367 97.9289 114.46 97.8562 114.567 97.8148L114.586 97.8075L114.604 97.7987C115.098 97.561 115.643 97.4519 116.19 97.4816L116.21 97.4827L116.229 97.4822C116.788 97.4682 117.341 97.5968 117.836 97.8559L117.851 97.8637L117.867 97.8705C118.255 98.0414 118.563 98.355 118.726 98.7464L118.729 98.7545L118.733 98.7625C118.831 98.9761 118.992 99.1551 119.193 99.276C119.39 99.3941 119.617 99.4514 119.846 99.4412H123.019C123.304 99.4412 123.606 99.3595 123.827 99.1142C124.038 98.8789 124.1 98.5755 124.1 98.2954V98.2536L124.093 98.2124C123.962 97.4351 123.66 96.6969 123.207 96.0513C122.756 95.4064 122.166 94.8703 121.481 94.4819C119.865 93.5492 118.021 93.0864 116.156 93.1455C114.223 93.0529 112.308 93.5615 110.675 94.6018L110.665 94.608L110.656 94.6145C110.083 95.0174 109.599 95.5339 109.234 96.1318C108.869 96.7297 108.631 97.3963 108.535 98.0901C108.438 98.7839 108.486 99.4901 108.674 100.165C108.863 100.839 109.188 101.468 109.63 102.012L109.641 102.026L109.653 102.038C110.397 102.832 111.361 103.384 112.421 103.625C113.433 103.873 114.459 104.057 115.493 104.174L115.493 104.174L115.5 104.174C116.317 104.256 117.122 104.428 117.901 104.686C118.194 104.797 118.367 104.919 118.465 105.032C118.551 105.131 118.598 105.246 118.601 105.403C118.59 105.533 118.545 105.657 118.471 105.764C118.393 105.875 118.287 105.964 118.164 106.019L118.164 106.019L118.154 106.024C117.631 106.273 117.055 106.39 116.477 106.363L116.465 106.363H116.454C114.64 106.363 113.73 105.813 113.39 104.938L113.384 104.923L113.377 104.909C113.275 104.689 113.114 104.501 112.912 104.366C112.71 104.232 112.475 104.155 112.233 104.146L112.223 104.145H112.213H109.049C108.749 104.145 108.421 104.213 108.188 104.472C107.965 104.72 107.925 105.038 107.925 105.291V105.324L107.929 105.357C108.042 106.213 108.347 107.033 108.82 107.755C109.294 108.477 109.924 109.084 110.664 109.53Z" fill="white" stroke="#0E3278"/>
<path d="M139.31 109.261C139.807 109.799 140.411 110.229 141.086 110.523C141.912 110.883 142.817 111.024 143.714 110.935C144.57 110.918 145.419 110.776 146.234 110.514C146.359 110.491 146.478 110.446 146.588 110.381C146.712 110.308 146.82 110.211 146.905 110.095C146.991 109.98 147.053 109.848 147.087 109.708C147.12 109.574 147.127 109.435 147.107 109.299L146.852 106.633C146.843 106.478 146.801 106.328 146.728 106.192L146.287 106.427L146.728 106.191C146.653 106.05 146.546 105.928 146.417 105.834C146.287 105.74 146.138 105.676 145.981 105.648C145.825 105.62 145.665 105.627 145.513 105.669C145.238 105.741 144.955 105.771 144.672 105.76L144.662 105.76H144.652C144.394 105.76 144.283 105.689 144.225 105.622C144.155 105.542 144.076 105.37 144.076 105.011V94.8728C144.076 94.5978 144.011 94.2957 143.791 94.0632C143.565 93.8257 143.262 93.7485 142.973 93.7485H139.314C139.026 93.7485 138.722 93.8257 138.496 94.0632C138.276 94.2957 138.211 94.5978 138.211 94.8728V102.794V102.806L138.212 102.818C138.231 103.22 138.167 103.622 138.025 103.999C137.884 104.371 137.669 104.711 137.393 104.998C137.097 105.269 136.751 105.48 136.374 105.618C135.992 105.758 135.587 105.821 135.181 105.803L135.161 105.802L135.14 105.803C134.75 105.818 134.362 105.75 134.001 105.602C133.644 105.456 133.321 105.236 133.055 104.956C132.509 104.32 132.224 103.501 132.258 102.664L132.258 102.654V102.644V94.8728C132.258 94.5978 132.194 94.2957 131.973 94.0632C131.748 93.8257 131.444 93.7485 131.156 93.7485H127.539C127.251 93.7485 126.947 93.8257 126.722 94.0632C126.501 94.2957 126.437 94.5978 126.437 94.8728V103.277C126.389 104.29 126.545 105.301 126.896 106.252C127.249 107.206 127.791 108.08 128.489 108.82L128.489 108.82L128.498 108.83C129.204 109.539 130.05 110.092 130.983 110.455C131.907 110.815 132.897 110.979 133.888 110.936C135.841 111.033 137.76 110.436 139.31 109.261Z" fill="white" stroke="#0E3278"/>
<path d="M172.308 101.513L172.308 101.501C172.347 100.664 172.068 99.8444 171.527 99.2057C171.275 98.9267 170.965 98.7065 170.618 98.561C170.27 98.4147 169.893 98.3475 169.515 98.3644L169.494 98.3653L169.474 98.3645C169.142 98.352 168.812 98.4149 168.509 98.5485C168.208 98.6808 167.941 98.8791 167.727 99.1286C167.237 99.7546 166.987 100.535 167.022 101.33L167.022 101.341V101.352V109.295C167.022 109.57 166.958 109.872 166.737 110.105C166.512 110.342 166.208 110.419 165.919 110.419H162.308C162.159 110.433 162.01 110.414 161.868 110.366M172.308 101.513L161.868 110.366M172.308 101.513V101.524V106.578C172.297 107.211 172.442 107.837 172.73 108.401C173.019 108.966 173.443 109.451 173.964 109.813C175.102 110.61 176.473 111.005 177.861 110.936C178.73 110.923 179.593 110.783 180.421 110.52C180.547 110.504 180.67 110.465 180.783 110.405L180.551 109.972L180.783 110.405C180.918 110.332 181.035 110.231 181.127 110.108C181.218 109.985 181.281 109.843 181.311 109.693C181.338 109.559 181.338 109.421 181.311 109.288L181.12 106.633L181.12 106.633L181.12 106.627C181.096 106.339 180.974 106.064 180.716 105.877C180.479 105.704 180.187 105.652 179.911 105.652H179.845L179.781 105.669C179.508 105.743 179.226 105.774 178.944 105.76L178.933 105.76H178.921C178.678 105.76 178.57 105.691 178.513 105.625C178.444 105.547 178.366 105.377 178.366 105.033V100.891C178.416 99.8784 178.261 98.866 177.91 97.9148C177.557 96.9595 177.014 96.0858 176.313 95.3468L176.308 95.341L176.302 95.3354C175.584 94.6252 174.727 94.0717 173.784 93.7098C172.85 93.351 171.852 93.1882 170.852 93.2314C169.736 93.1704 168.621 93.3559 167.585 93.775C166.712 94.1281 165.914 94.6396 165.23 95.2821C164.635 94.6609 163.924 94.1593 163.135 93.8066C162.186 93.3819 161.15 93.185 160.111 93.2313C159.053 93.1677 157.994 93.3211 156.997 93.6821C156.175 93.9799 155.41 94.4137 154.734 94.9642C154.333 94.4502 153.823 94.0267 153.24 93.725C152.486 93.3353 151.638 93.1645 150.792 93.2317C149.952 93.2193 149.117 93.3592 148.327 93.6446C148.073 93.7225 147.852 93.8832 147.7 94.1012C147.549 94.3188 147.474 94.5807 147.489 94.8451V97.3698C147.489 97.6699 147.6 97.964 147.872 98.1616C148.114 98.3377 148.416 98.3864 148.699 98.3864H149.409H149.446L149.482 98.3811C149.577 98.3671 149.675 98.3756 149.767 98.406C149.858 98.4363 149.942 98.4877 150.01 98.556C150.078 98.6242 150.129 98.7075 150.16 98.7992C150.19 98.8908 150.199 98.9883 150.185 99.0838L150.179 99.1199V99.1564V109.295C150.179 109.57 150.244 109.872 150.465 110.105C150.69 110.342 150.994 110.419 151.282 110.419H154.765C154.913 110.433 155.063 110.414 155.204 110.366C155.356 110.314 155.495 110.227 155.609 110.113L155.255 109.76L155.609 110.113C155.723 109.999 155.809 109.861 155.862 109.708C155.91 109.567 155.928 109.417 155.915 109.269V101.352V101.339L155.914 101.325C155.871 100.53 156.141 99.7504 156.665 99.1516C156.92 98.8904 157.227 98.6855 157.566 98.5498C157.909 98.4128 158.276 98.3496 158.645 98.3645L158.655 98.3649L158.665 98.3649C159.003 98.365 159.336 98.4396 159.642 98.5832C159.945 98.7258 160.214 98.933 160.428 99.1903C160.94 99.848 161.199 100.667 161.158 101.5L161.157 101.512V101.524V109.269C161.144 109.417 161.162 109.567 161.211 109.708L161.211 109.708C161.263 109.861 161.35 109.999 161.464 110.113L161.803 109.774L161.464 110.113C161.577 110.227 161.716 110.314 161.868 110.366M172.308 101.513L162.031 109.893L161.868 110.366" fill="white" stroke="#0E3278"/>
<path d="M73.0826 41.8352L72.9348 42.4517H73.5688H75.2337V42.4518L75.2413 42.4517C77.9393 42.4104 80.5838 43.2466 82.8039 44.8455C82.9525 44.9568 83.1077 45.0587 83.2686 45.1505L83.3837 45.2161H83.5162H83.7105H83.843L83.9582 45.1505C84.1179 45.0593 84.2721 44.9582 84.4197 44.8478C86.6629 43.2845 89.3017 42.4509 92 42.4509C94.6983 42.4509 97.3371 43.2845 99.5803 44.8478C99.7279 44.9583 99.8821 45.0593 100.042 45.1505L100.157 45.2161H100.29H100.484H100.616L100.731 45.1505C100.892 45.0587 101.047 44.9568 101.196 44.8455C103.416 43.2466 106.061 42.4104 108.759 42.4517V42.4517H108.766H110.431H111.065L110.917 41.8352C109.869 37.4612 107.439 33.5735 104.012 30.7932C100.584 28.0125 96.3559 26.5 92 26.5C87.6441 26.5 83.4157 28.0125 79.988 30.7932C76.5606 33.5735 74.1312 37.4612 73.0826 41.8352ZM106.062 51.3845L106.073 51.3765L106.084 51.368C106.847 50.751 107.791 50.4303 108.753 50.4567L108.753 50.4569H108.766H111H111.5V49.9569V45.3352V44.8352H111H108.769C106.751 44.8106 104.78 45.4631 103.151 46.6927L103.149 46.6947C102.367 47.293 101.423 47.6142 100.456 47.6142C99.4889 47.6142 98.5452 47.293 97.7631 46.6947L97.7632 46.6945L97.7521 46.6865C96.0863 45.4831 94.1031 44.8366 92.0694 44.8366C90.0356 44.8366 88.0524 45.4831 86.3866 46.6865L86.3865 46.6863L86.3756 46.6947C85.5935 47.293 84.6498 47.6142 83.6827 47.6142C82.7157 47.6142 81.772 47.293 80.9898 46.6946L80.9873 46.6927C79.3388 45.4478 77.3409 44.7945 75.298 44.8352H73H72.5V45.3352V49.9569V50.4569H73H75.2337V50.4571L75.2474 50.4567C76.2093 50.4303 77.1526 50.751 77.9161 51.368L77.9264 51.3764L77.9371 51.3841C79.6001 52.5885 81.5814 53.2356 83.6134 53.2356C85.6454 53.2356 87.6266 52.5885 89.2896 51.3841L89.2999 51.3767L89.3098 51.3687C90.0748 50.7532 91.0181 50.4324 91.9804 50.4568L91.9942 50.4571L92.0079 50.4567C92.9694 50.4281 93.9127 50.7488 94.6747 51.3674L94.6856 51.3762L94.697 51.3845C96.3628 52.5879 98.346 53.2344 100.38 53.2344C102.413 53.2344 104.397 52.5879 106.062 51.3845ZM106.062 59.6488L106.073 59.6409L106.084 59.6324C106.847 59.0154 107.791 58.6946 108.753 58.7211L108.753 58.7213H108.766H111H111.5V58.2213V53.5996V53.0996H111H108.769C106.751 53.0749 104.78 53.7275 103.151 54.957L103.149 54.959C102.367 55.5574 101.423 55.8786 100.456 55.8786C99.4889 55.8786 98.5452 55.5574 97.7631 54.959L97.7632 54.9589L97.7521 54.9508C96.0863 53.7474 94.1031 53.1009 92.0694 53.1009C90.0356 53.1009 88.0524 53.7474 86.3866 54.9508L86.3865 54.9507L86.3756 54.959C85.5935 55.5574 84.6498 55.8786 83.6827 55.8786C82.7157 55.8786 81.772 55.5574 80.9898 54.959L80.9873 54.9571C79.3388 53.7122 77.3409 53.0588 75.298 53.0996H73H72.5V53.5996V58.2213V58.7213H73H75.2337V58.7215L75.2474 58.7211C76.2093 58.6946 77.1526 59.0154 77.9161 59.6324L77.9264 59.6407L77.9371 59.6485C79.6001 60.8528 81.5814 61.5 83.6134 61.5C85.6454 61.5 87.6266 60.8528 89.2896 59.6485L89.2999 59.641L89.3098 59.6331C90.0748 59.0175 91.0181 58.6967 91.9804 58.7211L91.9942 58.7215L92.0079 58.721C92.9694 58.6924 93.9127 59.0132 94.6747 59.6317L94.6856 59.6406L94.697 59.6488C96.3628 60.8522 98.346 61.4987 100.38 61.4987C102.413 61.4987 104.397 60.8522 106.062 59.6488Z" fill="white" stroke="#0E3278"/>
<defs>
<radialGradient id="paint0_radial" cx="0" cy="0" r="1" gradientUnits="userSpaceOnUse" gradientTransform="translate(92.2431 44.242) scale(30.4741 30.428)">
<stop stop-color="#69ADE5"/>
<stop offset="1" stop-color="#0062A4"/>
</radialGradient>
</defs>
</svg>
