<svg width="123" height="80" viewBox="0 0 123 80" fill="none" xmlns="http://www.w3.org/2000/svg">
<g clip-path="url(#clip0)">
<path fill-rule="evenodd" clip-rule="evenodd" d="M81.6805 28.5493C81.6805 40.6189 71.8491 50.4449 59.6861 50.4449C47.562 50.4449 37.6918 40.6576 37.6918 28.5493C37.6918 16.4797 47.5232 6.65376 59.6861 6.65376C71.8102 6.65376 81.6805 16.441 81.6805 28.5493Z" fill="#21317D"/>
<path d="M39.9845 28.5493C39.9845 39.381 48.8056 48.1625 59.6862 48.1625C70.5668 48.1625 79.3878 39.381 79.3878 28.5493C79.3878 17.7176 70.5668 8.93617 59.6862 8.93617C48.8056 8.89748 39.9845 17.7176 39.9845 28.5493Z" fill="url(#paint0_radial)"/>
<path d="M3.17139 70.9845L3.17148 70.9844C2.82286 70.7267 2.54225 70.3882 2.35402 69.998C2.16718 69.6107 2.07699 69.184 2.09113 68.7544V55.9137C2.08167 55.7956 2.09668 55.6768 2.13535 55.5646M3.17139 70.9845L2.13535 55.5646M3.17139 70.9845L3.18119 70.9914C3.94829 71.5304 4.87436 71.7969 5.81102 71.7487C6.38082 71.7413 6.94629 71.6494 7.4889 71.4762C7.58448 71.462 7.67719 71.4317 7.7631 71.3866L7.7631 71.3866C7.87201 71.3294 7.96747 71.2495 8.043 71.1522C8.11851 71.055 8.17235 70.9426 8.20075 70.8227L7.7142 70.7075L8.20075 70.8227C8.22737 70.7102 8.23104 70.5937 8.21163 70.4799L8.0061 68.7723C7.9896 68.5468 7.89956 68.3074 7.66996 68.1477C7.46744 68.0068 7.23255 67.9853 7.06234 67.9853H6.99525L6.93053 68.003C6.78066 68.0439 6.62531 68.0615 6.47 68.0551L6.45973 68.0547H6.44946C6.37127 68.0547 6.32523 68.044 6.3014 68.0353C6.2812 68.028 6.27577 68.0219 6.2743 68.0203L6.27418 68.0202C6.27109 68.0168 6.22515 67.9626 6.22515 67.7631V55.8894C6.22515 55.6865 6.17742 55.4396 5.99161 55.2444C5.80137 55.0444 5.55087 54.9866 5.33514 54.9866H3.01927C2.90147 54.9772 2.78282 54.9921 2.67073 55.0305C2.54686 55.0729 2.43422 55.143 2.34143 55.2355C2.24862 55.3281 2.1781 55.4406 2.13535 55.5646M3.17139 70.9845L2.13535 55.5646" fill="white" stroke="#0E3278"/>
<path d="M19.2756 70.1488L19.4577 69.9988V69.9455C20.4691 68.8213 21.0311 67.3621 21.0311 65.8467C21.0311 64.2628 20.4172 62.7405 19.3181 61.5977L19.2974 61.5762L19.2743 61.5572C18.0067 60.5205 16.4181 59.954 14.779 59.954C13.1399 59.954 11.5513 60.5205 10.2838 61.5572L10.2638 61.5736L10.2456 61.5919C9.11924 62.7256 8.48706 64.2572 8.48706 65.8536C8.48706 67.45 9.11924 68.9816 10.2456 70.1153L10.2632 70.133L10.2824 70.1488C11.5479 71.1913 13.1379 71.7614 14.779 71.7614C16.4201 71.7614 18.0102 71.1913 19.2756 70.1488ZM14.793 68.1955C14.1903 68.1955 13.609 67.9757 13.1584 67.5785C12.7562 67.1067 12.5353 66.5077 12.5353 65.8883C12.5353 65.269 12.7562 64.67 13.1584 64.1981C13.609 63.8009 14.1903 63.5811 14.793 63.5811C15.3956 63.5811 15.9769 63.8009 16.4275 64.1981C16.8297 64.67 17.0507 65.269 17.0507 65.8883C17.0507 66.5077 16.8297 67.1067 16.4275 67.5785C15.9769 67.9757 15.3956 68.1955 14.793 68.1955Z" fill="white" stroke="#0E3278"/>
<path d="M33.416 60.3055L33.413 60.3055L31.1184 60.3193C31.0001 60.3131 30.8817 60.3313 30.7705 60.373C30.6509 60.4178 30.5426 60.4886 30.4536 60.5805C30.4346 60.6002 30.4165 60.6207 30.3995 60.642C29.5946 60.1929 28.6799 59.9642 27.7492 59.9859C26.9615 59.9599 26.1764 60.0903 25.4396 60.3697C24.6979 60.6509 24.0202 61.0773 23.4462 61.6238L23.439 61.6307L23.432 61.6379C22.3375 62.7668 21.7255 64.2759 21.7255 65.8466C21.7255 67.4174 22.3375 68.9264 23.432 70.0554L23.4378 70.0613L23.4438 70.0671C24.0153 70.6188 24.6927 71.0497 25.4353 71.3338C26.1728 71.6161 26.9595 71.7478 27.7489 71.7213C28.5819 71.7423 29.403 71.562 30.1441 71.2015V71.2043L30.1446 71.2154C30.1557 71.4662 30.1157 71.7166 30.0271 71.9516C29.9404 72.1814 29.809 72.3918 29.6403 72.5708C29.4503 72.7407 29.2287 72.8723 28.988 72.9578C28.7419 73.0453 28.4808 73.0831 28.2199 73.0688L28.2012 73.0678L28.1826 73.0682C27.7251 73.0773 27.2725 72.973 26.8657 72.7647C26.5806 72.6097 26.3628 72.3559 26.2534 72.0517L26.2497 72.0416L26.2456 72.0316C26.1714 71.8503 26.0464 71.6946 25.8857 71.583C25.725 71.4713 25.5356 71.4085 25.3402 71.4019L25.3317 71.4016H25.3232H22.9831C22.7923 71.4016 22.4523 71.4204 22.2469 71.7086C22.153 71.8403 22.1265 71.9784 22.1163 72.0667C22.107 72.1471 22.107 72.233 22.1071 72.293C22.1071 72.2969 22.1071 72.3007 22.1071 72.3043V72.347L22.1143 72.3892C22.2229 73.0199 22.4604 73.6215 22.812 74.1566C23.1636 74.6918 23.6217 75.1491 24.1579 75.5001L24.1604 75.5017C25.3622 76.2785 26.7734 76.6699 28.2043 76.6237C29.8021 76.689 31.3662 76.1506 32.5837 75.1156L32.5837 75.1156L32.5887 75.1112C33.1521 74.6193 33.5985 74.0084 33.8955 73.3227C34.1913 72.6399 34.3315 71.9001 34.306 71.1567V61.2082C34.306 61.0054 34.2582 60.7585 34.0724 60.5632C33.8822 60.3633 33.6317 60.3055 33.416 60.3055ZM28.0269 68.2494L28.012 68.2489L27.9971 68.2493C27.706 68.2577 27.4165 68.2033 27.1485 68.0899C26.8822 67.9772 26.6435 67.8089 26.4482 67.5965C26.0343 67.1205 25.816 66.5064 25.8369 65.8771L25.8375 65.8588L25.8368 65.8405C25.8113 65.206 26.0348 64.5862 26.4601 64.1128C26.6552 63.8987 26.8946 63.7291 27.1619 63.616C27.4297 63.5027 27.719 63.4487 28.0098 63.4578L28.0258 63.4583L28.0419 63.4578C28.3248 63.4485 28.6062 63.501 28.8665 63.6117C29.1212 63.72 29.3496 63.8814 29.5362 64.0849C29.924 64.5908 30.1342 65.2099 30.1342 65.8466C30.1342 66.4838 29.9237 67.1033 29.5354 67.6094C29.3477 67.8165 29.1172 67.981 28.8598 68.0915L29.057 68.551L28.8598 68.0915C28.5971 68.2043 28.3128 68.2582 28.0269 68.2494Z" fill="white" stroke="#0E3278"/>
<path d="M46.1433 70.15L46.3267 69.9999V69.9455C47.3381 68.8213 47.9001 67.3622 47.9001 65.8467C47.9001 64.2628 47.2862 62.7405 46.1871 61.5977L46.1661 61.5759L46.1426 61.5567C44.874 60.5228 43.2861 59.9581 41.648 59.9581C40.0099 59.9581 38.422 60.5228 37.1534 61.5567L37.1298 61.576L37.1087 61.5979C36.0089 62.743 35.3947 64.2675 35.3947 65.8536C35.3947 67.4397 36.0089 68.9642 37.1087 70.1093L37.1295 70.1309L37.1528 70.15C38.4203 71.1867 40.0089 71.7532 41.648 71.7532C43.2871 71.7532 44.8757 71.1867 46.1433 70.15ZM41.6749 68.1938L41.6607 68.1934L41.6466 68.1938C41.3441 68.2031 41.0429 68.1524 40.7602 68.0448C40.4858 67.9403 40.2344 67.7842 40.0195 67.585C39.6216 67.1086 39.4037 66.5083 39.4037 65.8883C39.4037 65.2683 39.6216 64.668 40.0195 64.1916C40.2344 63.9925 40.4858 63.8363 40.7602 63.7318C41.0429 63.6242 41.3442 63.5735 41.6466 63.5828L41.6607 63.5833L41.6749 63.5829C41.9754 63.5751 42.2746 63.6265 42.5551 63.7341C42.8274 63.8385 43.077 63.9939 43.2905 64.1917C43.6884 64.668 43.9063 65.2683 43.9063 65.8883C43.9063 66.5083 43.6884 67.1086 43.2905 67.585C43.077 67.7828 42.8274 67.9381 42.5551 68.0425C42.2746 68.1501 41.9754 68.2015 41.6749 68.1938Z" fill="white" stroke="#0E3278"/>
<path d="M52.7578 58.8214L52.7649 58.8152L52.7717 58.8088C52.9882 58.605 53.1608 58.3593 53.2788 58.0865C53.3968 57.8137 53.4577 57.5197 53.4577 57.2225C53.4577 56.9254 53.3968 56.6314 53.2788 56.3586C53.1608 56.0858 52.9882 55.84 52.7717 55.6363L52.7617 55.6269L52.7511 55.618C52.2888 55.2287 51.7035 55.0153 51.0988 55.0153C50.4942 55.0153 49.9088 55.2287 49.4465 55.618L49.436 55.6269L49.426 55.6363C49.2095 55.84 49.0369 56.0858 48.9189 56.3586C48.8009 56.6314 48.74 56.9254 48.74 57.2225C48.74 57.5197 48.8009 57.8137 48.9189 58.0865C49.0369 58.3593 49.2095 58.605 49.426 58.8088L49.4328 58.8152L49.4399 58.8214C49.8993 59.2223 50.4888 59.4431 51.0988 59.4431C51.7089 59.4431 52.2984 59.2223 52.7578 58.8214ZM50.0925 70.9801L50.1012 70.9866L50.1101 70.9929C50.8781 71.5266 51.8013 71.7922 52.736 71.7487C53.311 71.7424 53.8817 71.6506 54.4294 71.4762C54.525 71.462 54.6178 71.4318 54.7038 71.3866C54.8127 71.3294 54.9082 71.2495 54.9837 71.1522C55.0593 71.0549 55.1131 70.9426 55.1415 70.8227L54.6549 70.7075L55.1415 70.8227C55.1681 70.7102 55.1717 70.5937 55.1523 70.4799L54.9468 68.7723C54.9303 68.5468 54.8403 68.3074 54.6107 68.1477C54.4081 68.0068 54.1733 67.9853 54.003 67.9853H53.9386L53.8762 68.0016C53.719 68.0429 53.5566 68.0608 53.3941 68.055L53.3852 68.0547H53.3762C53.303 68.0547 53.2607 68.0444 53.2395 68.0365C53.2213 68.0298 53.217 68.0244 53.2156 68.0229C53.2118 68.0186 53.1659 67.9625 53.1659 67.7631V61.2082C53.1659 61.0054 53.1181 60.7585 52.9323 60.5633C52.7421 60.3633 52.4916 60.3055 52.2758 60.3055H49.96C49.8421 60.2961 49.7235 60.311 49.6114 60.3494C49.4876 60.3918 49.3749 60.4619 49.2821 60.5544L49.2821 60.5544C49.1893 60.647 49.1188 60.7595 49.076 60.8835C49.0374 60.9957 49.0224 61.1145 49.0318 61.2325V68.7548C49.0185 69.1817 49.1072 69.6056 49.2904 69.9916C49.4749 70.3803 49.75 70.7192 50.0925 70.9801Z" fill="white" stroke="#0E3278"/>
<path d="M59.9243 61.1019C59.6755 60.795 59.3685 60.5373 59.0188 60.3446C58.4905 60.0536 57.8883 59.9241 57.2872 59.9719C56.7269 59.9648 56.1699 60.0581 55.6426 60.2474C55.4428 60.3096 55.2689 60.4364 55.1486 60.6084C55.0287 60.7799 54.9693 60.9862 54.9795 61.1949V62.8192C54.9795 63.0587 55.0709 63.3071 55.3009 63.4739C55.5011 63.6191 55.7404 63.6525 55.9392 63.6525H56.3988H56.4352L56.4712 63.6472C56.5061 63.6421 56.5416 63.6452 56.575 63.6562C56.6083 63.6673 56.6385 63.6859 56.6631 63.7104C56.6878 63.735 56.7062 63.7649 56.7171 63.7976C56.7279 63.8303 56.731 63.865 56.726 63.899L56.7206 63.9352V63.9719V75.3236C56.7071 75.439 56.7178 75.5563 56.7524 75.6677C56.7927 75.7973 56.8639 75.9149 56.9598 76.0105C57.0558 76.1062 57.1735 76.177 57.3028 76.2169C57.4141 76.2513 57.5312 76.2619 57.6464 76.2484H59.9507C60.1532 76.2484 60.4 76.2011 60.5955 76.0162C60.7963 75.8263 60.8547 75.5757 60.8547 75.3596V71.2233C61.6005 71.5831 62.4246 71.7652 63.2613 71.7491C64.0556 71.7789 64.8479 71.6488 65.5909 71.3664C66.3387 71.0823 67.021 70.6498 67.5965 70.0952L67.6059 70.0861L67.6148 70.0765C68.6862 68.9301 69.2822 67.4211 69.2822 65.8536C69.2822 64.2861 68.6862 62.7771 67.6148 61.6307L67.6047 61.6199L67.594 61.6097C67.0161 61.0602 66.3334 60.6322 65.5865 60.3511C64.8444 60.0716 64.0539 59.9428 63.2614 59.972C62.5607 59.9589 61.8646 60.0872 61.2149 60.3495C60.7496 60.5373 60.3151 60.791 59.9243 61.1019ZM65.2039 65.7817L65.2029 65.8036L65.2038 65.8254C65.2303 66.4728 65.0035 67.1053 64.571 67.5894C64.3705 67.7967 64.1302 67.9619 63.8643 68.0752C63.5959 68.1895 63.307 68.2485 63.0151 68.2485C62.7232 68.2485 62.4343 68.1895 62.1659 68.0752C61.9021 67.9628 61.6635 67.7993 61.464 67.5943C61.048 67.0994 60.8308 66.4684 60.8543 65.8232L60.855 65.8037L60.8542 65.7841C60.8273 65.1397 61.0447 64.5088 61.4631 64.0166C61.6628 63.8112 61.9017 63.6473 62.1659 63.5348C62.4343 63.4205 62.7232 63.3615 63.0151 63.3615C63.307 63.3615 63.5959 63.4205 63.8643 63.5348C64.1306 63.6482 64.3713 63.8138 64.572 64.0217C65.0071 64.5026 65.2341 65.1351 65.2039 65.7817Z" fill="white" stroke="#0E3278"/>
<path d="M71.519 70.8165L71.5189 70.8167L71.5309 70.8234C72.696 71.4801 74.021 71.8005 75.3579 71.7492C76.6881 71.7907 78 71.4295 79.1205 70.7126C79.5999 70.4099 79.9927 69.9884 80.2604 69.489C80.5253 68.9948 80.6588 68.4411 80.648 67.8809C80.6665 67.4747 80.6054 67.0688 80.4681 66.686L79.9975 66.8548L80.4681 66.686C80.3286 66.2971 80.1132 65.9397 79.8344 65.6345L79.8345 65.6344L79.8294 65.6291C79.3241 65.0918 78.6695 64.7177 77.9497 64.5544C77.2953 64.3956 76.6328 64.2721 75.9651 64.1844C75.4362 64.1136 74.9171 63.9831 74.4177 63.7954L74.3923 63.7859L74.3659 63.7791C74.2846 63.7583 74.2123 63.712 74.1596 63.6475C74.1105 63.5873 74.0808 63.5141 74.0738 63.4374C74.0766 63.4036 74.0883 63.3709 74.108 63.3427C74.1302 63.3108 74.1617 63.2861 74.1985 63.272L74.2173 63.2647L74.2356 63.256C74.528 63.1154 74.8515 63.0509 75.1759 63.0685L75.1956 63.0696L75.2154 63.0691C75.5472 63.0608 75.8756 63.1369 76.1696 63.2903L76.1845 63.2981L76.1999 63.3048C76.4099 63.397 76.5759 63.5659 76.664 63.7761L76.6674 63.7843L76.6711 63.7923C76.7496 63.9627 76.8778 64.1053 77.0387 64.2015L77.2953 63.7724L77.0387 64.2015C77.1945 64.2947 77.3739 64.3402 77.555 64.333H79.6045C79.8209 64.333 80.071 64.2707 80.2577 64.0638C80.4357 63.8667 80.4806 63.6204 80.4806 63.4163V63.3744L80.4736 63.3331C80.3845 62.8054 80.1784 62.3043 79.8706 61.8662C79.5631 61.4287 79.1619 61.0651 78.6961 60.8017C77.6244 60.185 76.4016 59.8785 75.1652 59.9163C73.8802 59.8563 72.6078 60.194 71.5223 60.8834L71.5127 60.8895L71.5033 60.896C71.1128 61.1698 70.7828 61.5209 70.5339 61.9275C70.2851 62.334 70.1228 62.7874 70.0571 63.2593C69.9914 63.7312 70.0239 64.2116 70.1524 64.6705C70.2808 65.1293 70.5026 65.5568 70.8038 65.9264L70.815 65.9402L70.8272 65.9531C71.3191 66.4761 71.9525 66.8446 72.6498 67.0144C72.6437 67.0141 72.6377 67.0138 72.6316 67.0135L72.6219 67.0131H72.6122H70.5646C70.3486 67.0131 70.0764 67.0609 69.8766 67.2823C69.6873 67.4919 69.6606 67.7529 69.6606 67.9298V67.9628L69.665 67.9956C69.7419 68.5746 69.9485 69.1288 70.2695 69.6172C70.5905 70.1055 71.0176 70.5154 71.519 70.8165ZM72.9972 67.0959C73.5641 67.2233 74.1375 67.3199 74.7151 67.3851L74.7151 67.3851L74.7215 67.3857C75.236 67.4371 75.7433 67.5448 76.2341 67.7069C76.4054 67.772 76.4873 67.836 76.5246 67.879C76.5503 67.9086 76.5664 67.94 76.569 67.9958C76.5631 68.045 76.5452 68.0921 76.5167 68.1331L76.9271 68.4187L76.5167 68.1331C76.4851 68.1785 76.4415 68.2147 76.3906 68.2377L76.3905 68.2376L76.3812 68.242C76.0689 68.3904 75.7247 68.4598 75.3789 68.4441L75.3676 68.4436H75.3562C74.2098 68.4436 73.718 68.0993 73.5376 67.637L73.5319 67.6223L73.5253 67.608C73.4454 67.4361 73.3196 67.2898 73.1619 67.185L72.8851 67.6014L73.1619 67.185C73.1096 67.1502 73.0544 67.1204 72.9972 67.0959Z" fill="white" stroke="#0E3278"/>
<path d="M83.016 70.3288L83.0161 70.3287C82.548 69.8338 82.1848 69.2497 81.9483 68.6114C81.7133 67.9769 81.6084 67.3019 81.6397 66.6264V61.2082C81.6397 61.0054 81.6874 60.7585 81.8732 60.5633C82.0635 60.3633 82.314 60.3055 82.5297 60.3055H84.8698C85.0855 60.3055 85.336 60.3633 85.5262 60.5633C85.712 60.7585 85.7598 61.0054 85.7598 61.2082V66.2216V66.2318L85.7594 66.242C85.7392 66.7355 85.9071 67.2184 86.2293 67.5939C86.3836 67.7549 86.5703 67.8818 86.7774 67.9662C86.9877 68.0519 87.214 68.0917 87.4411 68.0829L87.4617 68.0821L87.4824 68.083C87.7218 68.0934 87.961 68.0564 88.186 67.9742C88.4067 67.8935 88.6095 67.7708 88.783 67.613C88.9431 67.446 89.0678 67.2486 89.1498 67.0326C89.2333 66.8124 89.2706 66.5776 89.2594 66.3426L89.2588 66.3307V66.3188V61.2082C89.2588 61.0054 89.3066 60.7585 89.4924 60.5633C89.6826 60.3633 89.9331 60.3055 90.1488 60.3055H92.5168C92.7325 60.3055 92.983 60.3633 93.1732 60.5633C93.3591 60.7585 93.4068 61.0054 93.4068 61.2082V67.7492C93.4068 67.9582 93.4539 68.0201 93.4593 68.0263C93.4609 68.0281 93.4642 68.0323 93.479 68.038C93.4968 68.0448 93.535 68.0547 93.6032 68.0547H93.6129L93.6225 68.0551C93.7883 68.0615 93.9541 68.0437 94.1146 68.0023C94.2382 67.9686 94.3678 67.9628 94.4939 67.9854C94.6219 68.0083 94.743 68.0598 94.8483 68.1361L94.5548 68.5409L94.8483 68.1361C94.9536 68.2125 95.0403 68.3117 95.1018 68.4265L95.1018 68.4265C95.1606 68.5362 95.195 68.6573 95.2024 68.7816L95.3673 70.4943C95.3823 70.6035 95.3766 70.7147 95.3502 70.8219L83.016 70.3288ZM83.016 70.3288L83.0255 70.3383C83.4996 70.8133 84.068 71.1841 84.6942 71.4269C85.3128 71.6667 85.9742 71.7765 86.637 71.7494C87.8871 71.8094 89.116 71.4457 90.1269 70.7248C90.4426 71.0375 90.8149 71.29 91.2255 71.4681C91.7857 71.711 92.3986 71.8074 93.0062 71.7484C93.5715 71.7364 94.132 71.6432 94.6705 71.4716C94.7671 71.4524 94.8599 71.417 94.9449 71.3669C95.0453 71.3077 95.1329 71.229 95.2025 71.1354L83.016 70.3288Z" fill="white" stroke="#0E3278"/>
<path d="M117.347 71.1436C117.272 71.2441 117.176 71.3266 117.066 71.3855C116.979 71.4319 116.885 71.4627 116.787 71.4767C116.24 71.6487 115.671 71.7404 115.098 71.7487C114.162 71.7947 113.238 71.5289 112.47 70.9928C112.109 70.7428 111.816 70.4078 111.615 70.0175C111.416 69.6282 111.315 69.1959 111.322 68.7587V65.4995V65.4877L111.323 65.476C111.346 64.9826 111.181 64.4986 110.861 64.121C110.716 63.9613 110.538 63.8351 110.338 63.7515C110.136 63.6671 109.918 63.6284 109.7 63.6381L109.679 63.639L109.658 63.6383C109.47 63.6312 109.283 63.6668 109.111 63.7423C108.942 63.8165 108.791 63.9276 108.671 64.0671C108.381 64.4371 108.234 64.8977 108.255 65.3662L108.255 65.3773V65.3884V70.5128C108.255 70.7157 108.207 70.9626 108.022 71.1578C107.831 71.3578 107.581 71.4156 107.365 71.4156H105.035C104.917 71.425 104.799 71.4101 104.687 71.3717L104.687 71.3717C104.563 71.3293 104.45 71.2592 104.357 71.1666C104.265 71.0742 104.194 70.9616 104.151 70.8376L104.151 70.8376C104.113 70.7253 104.098 70.6065 104.107 70.4885V65.4995V65.4871L104.108 65.4748C104.132 64.9817 103.979 64.496 103.675 64.1057C103.553 63.9605 103.401 63.8435 103.228 63.7628C103.054 63.6811 102.864 63.6387 102.671 63.6386L102.661 63.6386L102.651 63.6382C102.437 63.6296 102.223 63.6661 102.025 63.7454C101.829 63.8233 101.653 63.9406 101.506 64.0898C101.199 64.4409 101.042 64.8969 101.067 65.3614L101.068 65.3749V65.3884V70.4885C101.077 70.6066 101.062 70.7254 101.024 70.8376C100.981 70.9615 100.91 71.0741 100.817 71.1666L100.464 70.8126L100.817 71.1667C100.725 71.2592 100.612 71.3293 100.488 71.3717L100.488 71.3717C100.376 71.4101 100.257 71.425 100.14 71.4156H97.8934C97.6776 71.4156 97.4271 71.3578 97.2369 71.1578C97.0511 70.9626 97.0034 70.7157 97.0034 70.5128V63.9719V63.9353L97.0087 63.899C97.0137 63.865 97.0107 63.8303 96.9998 63.7976C96.9889 63.7648 96.9705 63.735 96.9459 63.7104C96.9212 63.6859 96.8911 63.6673 96.8577 63.6562C96.8243 63.6452 96.7888 63.6421 96.7539 63.6472L96.7179 63.6525H96.6815H96.2219C96.0232 63.6525 95.7839 63.6191 95.5836 63.474C95.3536 63.3071 95.2622 63.0588 95.2622 62.8192V61.1949C95.252 60.9862 95.3115 60.7799 95.4314 60.6084C95.5516 60.4364 95.7255 60.3096 95.9253 60.2474C96.4528 60.058 97.0102 59.9647 97.5707 59.9719C98.1478 59.9278 98.726 60.0446 99.2406 60.3098C99.5882 60.4889 99.8974 60.7309 100.153 61.0218C100.571 60.7048 101.036 60.4521 101.532 60.273C102.196 60.0331 102.903 59.9305 103.608 59.9715C104.304 59.942 104.998 60.0743 105.635 60.3581C106.114 60.5716 106.55 60.8664 106.925 61.228C107.354 60.852 107.845 60.5499 108.377 60.3353C109.069 60.0564 109.813 59.9323 110.558 59.9716C111.226 59.944 111.893 60.053 112.517 60.2921L112.338 60.759L112.517 60.2921C113.15 60.5343 113.725 60.9047 114.207 61.38L114.213 61.3856L114.218 61.3914C114.688 61.8856 115.053 62.4699 115.289 63.1089C115.524 63.7437 115.629 64.4194 115.596 65.0954V67.7631C115.596 67.9621 115.641 68.0223 115.647 68.0284C115.649 68.0304 115.652 68.0341 115.665 68.0392C115.68 68.0453 115.715 68.0547 115.778 68.0547H115.79L115.801 68.0553C115.966 68.0629 116.13 68.0451 116.289 68.0024L116.353 67.9853H116.419C116.617 67.9853 116.847 68.0217 117.043 68.1638C117.259 68.3203 117.358 68.5493 117.377 68.7769L117.377 68.7826L117.377 68.7826L117.5 70.4849C117.52 70.5905 117.519 70.6991 117.498 70.8046C117.473 70.9274 117.422 71.0432 117.347 71.1436ZM117.347 71.1436C117.347 71.1436 117.347 71.1437 117.347 71.1437L116.946 70.8451L117.347 71.1436ZM104.849 70.8987C104.901 70.9166 104.956 70.9223 105.011 70.9156H107.365C107.63 70.9156 107.755 70.7767 107.755 70.5128L104.849 70.8987ZM104.849 70.8987C104.797 70.8809 104.749 70.8514 104.71 70.8126C104.672 70.7737 104.642 70.7266 104.624 70.6746C104.606 70.6227 104.6 70.5674 104.607 70.5128L104.849 70.8987Z" fill="white" stroke="#0E3278"/>
<path d="M47.1196 26.9487L46.9713 27.5656H47.6057H48.6831V27.5657L48.6907 27.5656C50.3979 27.5396 52.0718 28.0668 53.4778 29.0759C53.5794 29.1518 53.6855 29.2212 53.7955 29.2838L53.9104 29.3491H54.0426H54.1683H54.3005L54.4155 29.2838C54.5243 29.2219 54.6294 29.1533 54.73 29.0783C56.1518 28.0911 57.8235 27.5651 59.5324 27.5651C61.2413 27.5651 62.913 28.0911 64.3348 29.0784C64.4355 29.1533 64.5405 29.2219 64.6494 29.2838L64.7643 29.3491H64.8965H65.0222H65.1544L65.2693 29.2838C65.3793 29.2212 65.4854 29.1518 65.587 29.076C66.993 28.0669 68.6669 27.5396 70.3741 27.5656V27.5656H70.3818H71.4591H72.0935L71.9452 26.9487C71.2577 24.0894 69.6646 21.5471 67.4159 19.7283C65.1669 17.9093 62.3918 16.9194 59.5324 16.9194C56.673 16.9194 53.898 17.9093 51.6489 19.7283C49.4002 21.5471 47.8072 24.0894 47.1196 26.9487ZM68.7348 33.2955L68.7458 33.2876L68.7563 33.2791C69.2182 32.907 69.7879 32.7142 70.368 32.7301L70.368 32.7303H70.3818H71.8271H72.3271V32.2303V29.2485V28.7485H71.8271H70.3848C69.0397 28.7324 67.7272 29.1661 66.6427 29.9823L66.6401 29.9842C66.1644 30.3472 65.5911 30.5414 65.0042 30.5414C64.4174 30.5414 63.8441 30.3472 63.3683 29.9842L63.3684 29.9841L63.3573 29.9761C62.2497 29.1783 60.9305 28.7494 59.5773 28.7494C58.224 28.7494 56.9049 29.1783 55.7973 29.9761L55.7972 29.9759L55.7863 29.9842C55.3105 30.3472 54.7372 30.5414 54.1504 30.5414C53.5635 30.5414 52.9902 30.3472 52.5145 29.9842L52.512 29.9823C51.4146 29.1561 50.0841 28.7219 48.723 28.7485H47.2377H46.7377V29.2485V32.2303V32.7303H47.2377H48.6831V32.7305L48.6968 32.7301C49.277 32.7142 49.8467 32.907 50.3085 33.2791L50.3188 33.2874L50.3295 33.2952C51.4353 34.0936 52.7533 34.523 54.1055 34.523C55.4577 34.523 56.7757 34.0936 57.8815 33.2952L57.8918 33.2877L57.9017 33.2798C58.3646 32.9084 58.9346 32.7155 59.5153 32.7301L59.529 32.7305L59.5427 32.7301C60.1224 32.7129 60.6918 32.9056 61.1525 33.2784L61.1634 33.2873L61.1748 33.2955C62.2824 34.0933 63.6016 34.5222 64.9548 34.5222C66.3081 34.5222 67.6273 34.0933 68.7348 33.2955ZM68.7348 38.6273L68.7458 38.6194L68.7563 38.611C69.2182 38.2388 69.7879 38.046 70.368 38.0619L70.368 38.0621H70.3818H71.8271H72.3271V37.5621V34.5804V34.0804H71.8271H70.3848C69.0396 34.0643 67.7272 34.4979 66.6427 35.3141L66.6401 35.3161C66.1644 35.679 65.5911 35.8733 65.0042 35.8733C64.4174 35.8733 63.8441 35.679 63.3683 35.3161L63.3684 35.3159L63.3573 35.3079C62.2497 34.5102 60.9305 34.0812 59.5773 34.0812C58.224 34.0812 56.9049 34.5102 55.7973 35.3079L55.7972 35.3078L55.7863 35.3161C55.3105 35.679 54.7372 35.8733 54.1504 35.8733C53.5635 35.8733 52.9902 35.679 52.5145 35.3161L52.512 35.3142C51.4146 34.4879 50.0841 34.0537 48.723 34.0804H47.2377H46.7377V34.5804V37.5621V38.0621H47.2377H48.6831V38.0623L48.6968 38.0619C49.277 38.046 49.8467 38.2388 50.3085 38.611L50.3188 38.6193L50.3295 38.627C51.4353 39.4254 52.7533 39.8548 54.1055 39.8548C55.4577 39.8548 56.7757 39.4254 57.8815 38.627L57.8918 38.6196L57.9017 38.6116C58.3646 38.2402 58.9346 38.0473 59.5153 38.062L59.529 38.0623L59.5427 38.0619C60.1224 38.0447 60.6918 38.2374 61.1525 38.6103L61.1634 38.6191L61.1748 38.6273C62.2824 39.4251 63.6016 39.854 64.9548 39.854C66.3081 39.854 67.6273 39.4251 68.7348 38.6273Z" fill="white" stroke="#0E3278"/>
</g>
<defs>
<radialGradient id="paint0_radial" cx="0" cy="0" r="1" gradientUnits="userSpaceOnUse" gradientTransform="translate(59.6897 28.5431) scale(19.7195 19.6309)">
<stop stop-color="#69ADE5"/>
<stop offset="1" stop-color="#0062A4"/>
</radialGradient>
<clipPath id="clip0">
<rect width="119.065" height="80" fill="white" transform="translate(1.94128)"/>
</clipPath>
</defs>
</svg>
