<svg width="9" height="5" viewBox="0 0 9 5" fill="none" xmlns="http://www.w3.org/2000/svg">
<path d="M8.45836 0.259569C8.31003 0.11212 8.10939 0.0293579 7.90024 0.0293579C7.69109 0.0293579 7.49044 0.11212 7.34211 0.259569L4.50003 3.06207L1.69753 0.259569C1.5492 0.11212 1.34855 0.0293579 1.13941 0.0293579C0.930258 0.0293579 0.729609 0.11212 0.581281 0.259569C0.507079 0.333164 0.448183 0.420723 0.407991 0.517195C0.3678 0.613667 0.347107 0.717143 0.347107 0.821652C0.347107 0.926162 0.3678 1.02964 0.407991 1.12611C0.448183 1.22258 0.507079 1.31014 0.581281 1.38374L3.93795 4.7404C4.01154 4.8146 4.0991 4.8735 4.19557 4.91369C4.29205 4.95388 4.39552 4.97458 4.50003 4.97458C4.60454 4.97458 4.70801 4.95388 4.80449 4.91369C4.90096 4.8735 4.98852 4.8146 5.06211 4.7404L8.45836 1.38374C8.53256 1.31014 8.59146 1.22258 8.63165 1.12611C8.67184 1.02964 8.69254 0.926162 8.69254 0.821652C8.69254 0.717143 8.67184 0.613667 8.63165 0.517195C8.59146 0.420723 8.53256 0.333164 8.45836 0.259569Z" fill="#78BE21"/>
</svg>
